<svg width="114" height="30" viewBox="0 0 114 30" fill="none" xmlns="http://www.w3.org/2000/svg">
<g clip-path="url(#clip0_15701_239)">
<path d="M57.8635 1.2265C57.5688 1.0196 57.2143 0.922607 56.858 0.922607H51.1238C50.3184 0.922607 49.6202 1.49631 49.4395 2.30572L48.4112 6.92117C48.202 7.85989 47.8554 9.57805 47.5055 11.4667C47.4798 11.6036 47.2957 11.6189 47.2501 11.4878L43.9697 2.10057C43.7229 1.39403 43.0726 0.922607 42.3441 0.922607H35.9897C35.1843 0.922607 34.4861 1.49631 34.3054 2.30572L28.8271 26.8966C28.6282 27.7889 29.1133 28.757 30.1148 29.0438C30.2025 29.0691 30.2943 29.0773 30.3855 29.0773C31.0883 29.0773 34.3293 29.0773 36.2172 29.0773C37.0226 29.0773 37.7203 28.5036 37.9004 27.6942L39.0461 22.5503C39.3043 21.3924 39.603 19.8799 39.892 18.2946C39.917 18.1565 40.1034 18.1424 40.1485 18.2752L43.3633 27.8765C43.6038 28.5948 44.2599 29.0768 44.9963 29.0768H51.4191C52.2245 29.0768 52.9227 28.5031 53.1034 27.6936L58.5817 3.10278C58.7379 2.40153 58.4717 1.65266 57.8641 1.22533L57.8635 1.2265Z" fill="#DAFF00"/>
<path d="M111.8 4.60524C109.727 1.91955 106.448 0.5 102.317 0.5C98.1872 0.5 94.5209 1.84902 91.4537 4.40068C89.3664 6.13706 87.7248 8.32723 86.5996 10.8507C86.5329 11 86.3146 10.9212 86.35 10.7613L88.056 3.10398C88.2122 2.40273 87.946 1.65386 87.3383 1.22653C87.0437 1.01962 86.6891 0.922633 86.3329 0.922633H79.9152C79.335 0.922633 78.7935 1.223 78.4737 1.72205L71.9016 11.9728C71.8361 12.0751 71.6839 12.0439 71.6605 11.924L69.7886 2.35218C69.6262 1.52043 68.9177 0.922633 68.0946 0.922633H61.5014C60.696 0.922633 59.9977 1.49633 59.817 2.30574L54.3388 26.8966C54.1735 27.639 54.4813 28.4337 55.1658 28.8452C55.4315 29.0045 55.737 29.0774 56.0442 29.0774C56.9357 29.0774 59.719 29.0774 61.421 29.0774C62.2264 29.0774 62.9241 28.5037 63.1042 27.6943L64.4386 21.7051C64.511 21.3806 64.5896 21.018 64.674 20.6112C64.7042 20.466 64.906 20.466 64.9345 20.6112L65.4857 23.4209C65.6487 24.2521 66.3572 24.8499 67.1792 24.8499H71.689C72.2721 24.8499 72.8159 24.5466 73.1351 24.0434L74.7505 21.4976C74.832 21.3695 75.0246 21.4535 74.9916 21.6028C74.6313 23.2193 73.8122 26.8966 73.8122 26.8966C73.6469 27.639 73.9547 28.4337 74.6393 28.8452C74.9049 29.0045 75.2099 29.0774 75.5171 29.0774C76.4086 29.0774 79.1925 29.0774 80.8945 29.0774C81.6999 29.0774 82.3976 28.5037 82.5777 27.6943L84.6753 18.2788C84.7107 18.1195 84.9369 18.1465 84.9369 18.3099C84.9329 21.0532 85.6796 23.4903 87.1389 25.3801C89.2205 28.0757 92.5094 29.5006 96.6504 29.5006C100.791 29.5006 104.438 28.1463 107.503 25.584C110.555 23.0324 112.653 19.5108 113.569 15.3991C114.517 11.1434 113.888 7.30973 111.8 4.60524H111.8ZM94.5403 15.3991C95.4261 11.4238 98.0595 8.85508 101.25 8.85508C102.472 8.85508 103.38 9.22716 103.946 9.96015C104.704 10.9424 104.875 12.5906 104.428 14.6009C103.56 18.4939 100.867 21.1097 97.726 21.1097C96.492 21.1097 95.58 20.7388 95.0145 20.0075C94.2633 19.0347 94.0951 17.3983 94.5403 15.3991Z" fill="#DAFF00"/>
<path d="M31.5073 10.0136C31.6247 9.47048 31.2263 8.95145 30.6882 8.91207H23.6618C23.2799 8.88385 22.9139 9.10487 22.7709 9.47166C22.7372 9.55748 22.7099 9.64682 22.6894 9.7397L20.1808 20.9991C20.1586 21.0991 20.044 21.1367 19.9659 21.0732C19.6638 20.8257 19.287 20.687 18.8937 20.687H10.6783L14.5954 3.10396C14.7515 2.4027 14.4854 1.65384 13.8777 1.2265C13.583 1.0196 13.2285 0.922607 12.8723 0.922607H7.20646C6.40105 0.922607 5.7028 1.49631 5.52211 2.30572L0.0438387 26.8966C-0.112341 27.5978 0.153849 28.3467 0.761469 28.774C1.05616 28.9809 1.4107 29.0779 1.76695 29.0779H17.8181C18.3141 29.0779 18.7695 28.8599 19.0881 28.5036C19.1394 28.446 19.2283 28.4449 19.2796 28.5025C19.3623 28.5953 19.4563 28.6812 19.5601 28.757C19.8587 28.9745 20.2224 29.0779 20.5889 29.0779H25.9486C26.754 29.0779 27.4523 28.5042 27.633 27.6948L31.505 10.0248C31.5056 10.0213 31.5067 10.0177 31.5073 10.0142V10.0136Z" fill="#DAFF00"/>
<path d="M23.8054 7.8934L31.2592 7.89164C31.5192 7.90809 31.7797 7.81287 31.9558 7.61478C32.1137 7.43726 32.23 7.22683 32.2892 6.99347L33.2474 2.82298C33.3654 2.36214 33.2429 1.87779 32.9151 1.50806C32.5873 1.13833 32.0897 0.922607 31.5636 0.922607H25.8585C25.0531 0.922607 24.3548 1.42224 24.1741 2.12761L22.9891 6.76305C22.988 6.76658 22.9874 6.77069 22.9863 6.77422C22.8506 7.32264 23.257 7.85813 23.8054 7.8934Z" fill="#DAFF00"/>
</g>
<defs>
<clipPath id="clip0_15701_239">
<rect width="114" height="29" fill="white" transform="translate(0 0.5)"/>
</clipPath>
</defs>
</svg>
